<svg xmlns="http://www.w3.org/2000/svg" viewBox="0 0 1200 640" width="1200" height="640" role="img">
  <title>Pears — 编程能力分发到每个人 / Coding, handed to everyone</title>
  <style>line,rect,circle,ellipse,path,polyline,polygon{vector-effect:non-scaling-stroke}</style>
  <rect x="0" y="0" width="1200" height="640" fill="#FFFFFF"/>
  <line x1="218.9" y1="250" x2="141" y2="295" fill="none" stroke="#BEBEBE" stroke-width="1" stroke-dasharray="7 5"/>
  <line x1="218.9" y1="250" x2="296.9" y2="295" fill="none" stroke="#BEBEBE" stroke-width="1" stroke-dasharray="7 5"/>
  <line x1="218.9" y1="250" x2="218.9" y2="80" fill="none" stroke="#BEBEBE" stroke-width="1" stroke-dasharray="7 5"/>
  <line x1="218.9" y1="340" x2="218.9" y2="170" fill="none" stroke="#6F6F6F" stroke-width="1"/>
  <line x1="296.9" y1="125" x2="218.9" y2="170" fill="none" stroke="#6F6F6F" stroke-width="1"/>
  <line x1="141" y1="125" x2="218.9" y2="170" fill="none" stroke="#6F6F6F" stroke-width="1"/>
  <line x1="296.9" y1="295" x2="218.9" y2="340" fill="none" stroke="#181818" stroke-width="1.5"/>
  <line x1="141" y1="295" x2="218.9" y2="340" fill="none" stroke="#181818" stroke-width="1.5"/>
  <line x1="218.9" y1="80" x2="296.9" y2="125" fill="none" stroke="#181818" stroke-width="1.5"/>
  <line x1="218.9" y1="80" x2="141" y2="125" fill="none" stroke="#181818" stroke-width="1.5"/>
  <line x1="296.9" y1="295" x2="296.9" y2="125" fill="none" stroke="#181818" stroke-width="1.5"/>
  <line x1="141" y1="295" x2="141" y2="125" fill="none" stroke="#181818" stroke-width="1.5"/>
  <g transform="matrix(-0.8660,0.5000,0.0000,1.0000,286.5,145)">
  <rect x="8" y="0" width="14" height="18" fill="none" stroke="#BEBEBE" stroke-width="1"/>
  <rect x="38" y="0" width="14" height="18" fill="none" stroke="#BEBEBE" stroke-width="1"/>
  <rect x="8" y="30" width="14" height="18" fill="none" stroke="#BEBEBE" stroke-width="1"/>
  <rect x="38" y="30" width="14" height="18" fill="none" stroke="#BEBEBE" stroke-width="1"/>
  <rect x="8" y="60" width="14" height="18" fill="none" stroke="#BEBEBE" stroke-width="1"/>
  <rect x="38" y="60" width="14" height="18" fill="none" stroke="#BEBEBE" stroke-width="1"/>
  <rect x="20" y="112" width="22" height="44" fill="none" stroke="#BEBEBE" stroke-width="1"/>
  </g>
  <circle cx="266.6" cy="307.5" r="4.5" fill="#FFFFFF" stroke="#6F6F6F" stroke-width="1"/>
  <line x1="266.6" y1="312" x2="266.6" y2="327.5" fill="none" stroke="#6F6F6F" stroke-width="1"/>
  <line x1="266.6" y1="327.5" x2="272.1" y2="337.5" fill="none" stroke="#6F6F6F" stroke-width="1"/>
  <line x1="266.6" y1="327.5" x2="261" y2="337.5" fill="none" stroke="#6F6F6F" stroke-width="1"/>
  <circle cx="249.3" cy="330.5" r="4.5" fill="#FFFFFF" stroke="#6F6F6F" stroke-width="1"/>
  <line x1="249.3" y1="335" x2="249.3" y2="350.5" fill="none" stroke="#6F6F6F" stroke-width="1"/>
  <line x1="249.3" y1="350.5" x2="254.8" y2="360.5" fill="none" stroke="#6F6F6F" stroke-width="1"/>
  <line x1="249.3" y1="350.5" x2="243.7" y2="360.5" fill="none" stroke="#6F6F6F" stroke-width="1"/>
  <circle cx="231.9" cy="353.5" r="4.5" fill="#FFFFFF" stroke="#6F6F6F" stroke-width="1"/>
  <line x1="231.9" y1="358" x2="231.9" y2="373.5" fill="none" stroke="#6F6F6F" stroke-width="1"/>
  <line x1="231.9" y1="373.5" x2="237.5" y2="383.5" fill="none" stroke="#6F6F6F" stroke-width="1"/>
  <line x1="231.9" y1="373.5" x2="226.4" y2="383.5" fill="none" stroke="#6F6F6F" stroke-width="1"/>
  <circle cx="214.6" cy="376.5" r="4.5" fill="#FFFFFF" stroke="#6F6F6F" stroke-width="1"/>
  <line x1="214.6" y1="381" x2="214.6" y2="396.5" fill="none" stroke="#6F6F6F" stroke-width="1"/>
  <line x1="214.6" y1="396.5" x2="220.2" y2="406.5" fill="none" stroke="#6F6F6F" stroke-width="1"/>
  <line x1="214.6" y1="396.5" x2="209.1" y2="406.5" fill="none" stroke="#6F6F6F" stroke-width="1"/>
  <circle cx="197.3" cy="399.5" r="4.5" fill="#FFFFFF" stroke="#6F6F6F" stroke-width="1"/>
  <line x1="197.3" y1="404" x2="197.3" y2="419.5" fill="none" stroke="#6F6F6F" stroke-width="1"/>
  <line x1="197.3" y1="419.5" x2="202.8" y2="429.5" fill="none" stroke="#6F6F6F" stroke-width="1"/>
  <line x1="197.3" y1="419.5" x2="191.8" y2="429.5" fill="none" stroke="#6F6F6F" stroke-width="1"/>
  <text x="150" y="490" text-anchor="middle" font-family="Garamond, 'EB Garamond', Georgia, 'Times New Roman', serif" font-style="italic" font-size="19" letter-spacing="1" paint-order="stroke" stroke="#FFFFFF" stroke-width="8" stroke-linejoin="round" fill="#999999">one team, everyone waiting.</text>
  <polygon points="542.8,381 600,414 565.4,434 508.2,401" fill="#FFFFFF" stroke="#6F6F6F" stroke-width="1"/>
  <polygon points="600,436 565.4,456 565.4,434 600,414" fill="#FFFFFF" stroke="#6F6F6F" stroke-width="1"/>
  <polygon points="508.2,423 565.4,456 565.4,434 508.2,401" fill="#FFFFFF" stroke="#6F6F6F" stroke-width="1"/>
  <line x1="565.4" y1="456" x2="565.4" y2="434" fill="none" stroke="#6F6F6F" stroke-width="1"/>
  <line x1="600" y1="414" x2="565.4" y2="434" fill="none" stroke="#6F6F6F" stroke-width="1"/>
  <line x1="508.2" y1="401" x2="565.4" y2="434" fill="none" stroke="#6F6F6F" stroke-width="1"/>
  <line x1="600" y1="436" x2="565.4" y2="456" fill="none" stroke="#6F6F6F" stroke-width="1"/>
  <line x1="508.2" y1="423" x2="565.4" y2="456" fill="none" stroke="#6F6F6F" stroke-width="1"/>
  <line x1="542.8" y1="381" x2="600" y2="414" fill="none" stroke="#6F6F6F" stroke-width="1"/>
  <line x1="542.8" y1="381" x2="508.2" y2="401" fill="none" stroke="#6F6F6F" stroke-width="1"/>
  <line x1="600" y1="436" x2="600" y2="414" fill="none" stroke="#6F6F6F" stroke-width="1"/>
  <line x1="508.2" y1="423" x2="508.2" y2="401" fill="none" stroke="#6F6F6F" stroke-width="1"/>
  <circle cx="471.8" cy="388" r="4.5" fill="#FFFFFF" stroke="#6F6F6F" stroke-width="1"/>
  <line x1="471.8" y1="392.5" x2="471.8" y2="408" fill="none" stroke="#6F6F6F" stroke-width="1"/>
  <line x1="471.8" y1="408" x2="477.4" y2="418" fill="none" stroke="#6F6F6F" stroke-width="1"/>
  <line x1="471.8" y1="408" x2="466.3" y2="418" fill="none" stroke="#6F6F6F" stroke-width="1"/>
  <path d="M 480.8 385 C 547.8 330 567.3 389 643.3 451" fill="none" stroke="#181818" stroke-width="1.5" stroke-dasharray="7 5"/>
  <polygon points="643.3,434 672.7,451 643.3,468 613.9,451" fill="#FFFFFF" stroke="#6F6F6F" stroke-width="1"/>
  <polygon points="672.7,485 643.3,502 643.3,468 672.7,451" fill="#FFFFFF" stroke="#6F6F6F" stroke-width="1"/>
  <polygon points="613.9,485 643.3,502 643.3,468 613.9,451" fill="#FFFFFF" stroke="#6F6F6F" stroke-width="1"/>
  <line x1="643.3" y1="502" x2="643.3" y2="468" fill="none" stroke="#6F6F6F" stroke-width="1"/>
  <line x1="672.7" y1="451" x2="643.3" y2="468" fill="none" stroke="#6F6F6F" stroke-width="1"/>
  <line x1="613.9" y1="451" x2="643.3" y2="468" fill="none" stroke="#6F6F6F" stroke-width="1"/>
  <line x1="672.7" y1="485" x2="643.3" y2="502" fill="none" stroke="#181818" stroke-width="1.5"/>
  <line x1="613.9" y1="485" x2="643.3" y2="502" fill="none" stroke="#181818" stroke-width="1.5"/>
  <line x1="643.3" y1="434" x2="672.7" y2="451" fill="none" stroke="#181818" stroke-width="1.5"/>
  <line x1="643.3" y1="434" x2="613.9" y2="451" fill="none" stroke="#181818" stroke-width="1.5"/>
  <line x1="672.7" y1="485" x2="672.7" y2="451" fill="none" stroke="#181818" stroke-width="1.5"/>
  <line x1="613.9" y1="485" x2="613.9" y2="451" fill="none" stroke="#181818" stroke-width="1.5"/>
  <text x="545.8282408" y="318.0" text-anchor="start" font-family="Garamond, 'EB Garamond', Georgia, 'Times New Roman', serif" font-style="italic" font-size="19" letter-spacing="1" paint-order="stroke" stroke="#FFFFFF" stroke-width="8" stroke-linejoin="round" fill="#999999">shown once.</text>
  <circle cx="894.4" cy="480" r="4.5" fill="#FFFFFF" stroke="#6F6F6F" stroke-width="1"/>
  <line x1="894.4" y1="484.5" x2="894.4" y2="500" fill="none" stroke="#6F6F6F" stroke-width="1"/>
  <line x1="894.4" y1="500" x2="900" y2="510" fill="none" stroke="#6F6F6F" stroke-width="1"/>
  <line x1="894.4" y1="500" x2="888.9" y2="510" fill="none" stroke="#6F6F6F" stroke-width="1"/>
  <polygon points="932.6,486 948.1,495 932.6,504 917,495" fill="#FFFFFF" stroke="#6F6F6F" stroke-width="1"/>
  <polygon points="948.1,513 932.6,522 932.6,504 948.1,495" fill="#FFFFFF" stroke="#6F6F6F" stroke-width="1"/>
  <polygon points="917,513 932.6,522 932.6,504 917,495" fill="#FFFFFF" stroke="#6F6F6F" stroke-width="1"/>
  <line x1="932.6" y1="522" x2="932.6" y2="504" fill="none" stroke="#6F6F6F" stroke-width="1"/>
  <line x1="948.1" y1="495" x2="932.6" y2="504" fill="none" stroke="#6F6F6F" stroke-width="1"/>
  <line x1="917" y1="495" x2="932.6" y2="504" fill="none" stroke="#6F6F6F" stroke-width="1"/>
  <line x1="948.1" y1="513" x2="932.6" y2="522" fill="none" stroke="#6F6F6F" stroke-width="1"/>
  <line x1="917" y1="513" x2="932.6" y2="522" fill="none" stroke="#6F6F6F" stroke-width="1"/>
  <line x1="932.6" y1="486" x2="948.1" y2="495" fill="none" stroke="#6F6F6F" stroke-width="1"/>
  <line x1="932.6" y1="486" x2="917" y2="495" fill="none" stroke="#6F6F6F" stroke-width="1"/>
  <line x1="948.1" y1="513" x2="948.1" y2="495" fill="none" stroke="#6F6F6F" stroke-width="1"/>
  <line x1="917" y1="513" x2="917" y2="495" fill="none" stroke="#6F6F6F" stroke-width="1"/>
  <path d="M 658 469.5 Q 795.3 452.2 932.6 495" fill="none" stroke="#BEBEBE" stroke-width="1" stroke-dasharray="7 5"/>
  <circle cx="1033" cy="480" r="4.5" fill="#FFFFFF" stroke="#6F6F6F" stroke-width="1"/>
  <line x1="1033" y1="484.5" x2="1033" y2="500" fill="none" stroke="#6F6F6F" stroke-width="1"/>
  <line x1="1033" y1="500" x2="1038.6" y2="510" fill="none" stroke="#6F6F6F" stroke-width="1"/>
  <line x1="1033" y1="500" x2="1027.5" y2="510" fill="none" stroke="#6F6F6F" stroke-width="1"/>
  <polygon points="1071.1,486 1086.7,495 1071.1,504 1055.5,495" fill="#FFFFFF" stroke="#6F6F6F" stroke-width="1"/>
  <polygon points="1086.7,513 1071.1,522 1071.1,504 1086.7,495" fill="#FFFFFF" stroke="#6F6F6F" stroke-width="1"/>
  <polygon points="1055.5,513 1071.1,522 1071.1,504 1055.5,495" fill="#FFFFFF" stroke="#6F6F6F" stroke-width="1"/>
  <line x1="1071.1" y1="522" x2="1071.1" y2="504" fill="none" stroke="#6F6F6F" stroke-width="1"/>
  <line x1="1086.7" y1="495" x2="1071.1" y2="504" fill="none" stroke="#6F6F6F" stroke-width="1"/>
  <line x1="1055.5" y1="495" x2="1071.1" y2="504" fill="none" stroke="#6F6F6F" stroke-width="1"/>
  <line x1="1086.7" y1="513" x2="1071.1" y2="522" fill="none" stroke="#6F6F6F" stroke-width="1"/>
  <line x1="1055.5" y1="513" x2="1071.1" y2="522" fill="none" stroke="#6F6F6F" stroke-width="1"/>
  <line x1="1071.1" y1="486" x2="1086.7" y2="495" fill="none" stroke="#6F6F6F" stroke-width="1"/>
  <line x1="1071.1" y1="486" x2="1055.5" y2="495" fill="none" stroke="#6F6F6F" stroke-width="1"/>
  <line x1="1086.7" y1="513" x2="1086.7" y2="495" fill="none" stroke="#6F6F6F" stroke-width="1"/>
  <line x1="1055.5" y1="513" x2="1055.5" y2="495" fill="none" stroke="#6F6F6F" stroke-width="1"/>
  <path d="M 658 469.5 Q 864.6 452.2 1071.1 495" fill="none" stroke="#BEBEBE" stroke-width="1" stroke-dasharray="7 5"/>
  <circle cx="894.4" cy="530" r="4.5" fill="#FFFFFF" stroke="#6F6F6F" stroke-width="1"/>
  <line x1="894.4" y1="534.5" x2="894.4" y2="550" fill="none" stroke="#6F6F6F" stroke-width="1"/>
  <line x1="894.4" y1="550" x2="900" y2="560" fill="none" stroke="#6F6F6F" stroke-width="1"/>
  <line x1="894.4" y1="550" x2="888.9" y2="560" fill="none" stroke="#6F6F6F" stroke-width="1"/>
  <polygon points="932.6,536 948.1,545 932.6,554 917,545" fill="#FFFFFF" stroke="#6F6F6F" stroke-width="1"/>
  <polygon points="948.1,563 932.6,572 932.6,554 948.1,545" fill="#FFFFFF" stroke="#6F6F6F" stroke-width="1"/>
  <polygon points="917,563 932.6,572 932.6,554 917,545" fill="#FFFFFF" stroke="#6F6F6F" stroke-width="1"/>
  <line x1="932.6" y1="572" x2="932.6" y2="554" fill="none" stroke="#6F6F6F" stroke-width="1"/>
  <line x1="948.1" y1="545" x2="932.6" y2="554" fill="none" stroke="#6F6F6F" stroke-width="1"/>
  <line x1="917" y1="545" x2="932.6" y2="554" fill="none" stroke="#6F6F6F" stroke-width="1"/>
  <line x1="948.1" y1="563" x2="932.6" y2="572" fill="none" stroke="#6F6F6F" stroke-width="1"/>
  <line x1="917" y1="563" x2="932.6" y2="572" fill="none" stroke="#6F6F6F" stroke-width="1"/>
  <line x1="932.6" y1="536" x2="948.1" y2="545" fill="none" stroke="#6F6F6F" stroke-width="1"/>
  <line x1="932.6" y1="536" x2="917" y2="545" fill="none" stroke="#6F6F6F" stroke-width="1"/>
  <line x1="948.1" y1="563" x2="948.1" y2="545" fill="none" stroke="#6F6F6F" stroke-width="1"/>
  <line x1="917" y1="563" x2="917" y2="545" fill="none" stroke="#6F6F6F" stroke-width="1"/>
  <path d="M 658 469.5 Q 795.3 477.2 932.6 545" fill="none" stroke="#BEBEBE" stroke-width="1" stroke-dasharray="7 5"/>
  <circle cx="1036.5" cy="530" r="4.5" fill="#FFFFFF" stroke="#6F6F6F" stroke-width="1"/>
  <line x1="1036.5" y1="534.5" x2="1036.5" y2="550" fill="none" stroke="#6F6F6F" stroke-width="1"/>
  <line x1="1036.5" y1="550" x2="1042" y2="560" fill="none" stroke="#6F6F6F" stroke-width="1"/>
  <line x1="1036.5" y1="550" x2="1030.9" y2="560" fill="none" stroke="#6F6F6F" stroke-width="1"/>
  <polygon points="1074.6,536 1090.2,545 1074.6,554 1059,545" fill="#FFFFFF" stroke="#6F6F6F" stroke-width="1"/>
  <polygon points="1090.2,563 1074.6,572 1074.6,554 1090.2,545" fill="#FFFFFF" stroke="#6F6F6F" stroke-width="1"/>
  <polygon points="1059,563 1074.6,572 1074.6,554 1059,545" fill="#FFFFFF" stroke="#6F6F6F" stroke-width="1"/>
  <line x1="1074.6" y1="572" x2="1074.6" y2="554" fill="none" stroke="#6F6F6F" stroke-width="1"/>
  <line x1="1090.2" y1="545" x2="1074.6" y2="554" fill="none" stroke="#6F6F6F" stroke-width="1"/>
  <line x1="1059" y1="545" x2="1074.6" y2="554" fill="none" stroke="#6F6F6F" stroke-width="1"/>
  <line x1="1090.2" y1="563" x2="1074.6" y2="572" fill="none" stroke="#6F6F6F" stroke-width="1"/>
  <line x1="1059" y1="563" x2="1074.6" y2="572" fill="none" stroke="#6F6F6F" stroke-width="1"/>
  <line x1="1074.6" y1="536" x2="1090.2" y2="545" fill="none" stroke="#6F6F6F" stroke-width="1"/>
  <line x1="1074.6" y1="536" x2="1059" y2="545" fill="none" stroke="#6F6F6F" stroke-width="1"/>
  <line x1="1090.2" y1="563" x2="1090.2" y2="545" fill="none" stroke="#6F6F6F" stroke-width="1"/>
  <line x1="1059" y1="563" x2="1059" y2="545" fill="none" stroke="#6F6F6F" stroke-width="1"/>
  <path d="M 658 469.5 Q 866.3 477.2 1074.6 545" fill="none" stroke="#BEBEBE" stroke-width="1" stroke-dasharray="7 5"/>
  <text x="985" y="456" text-anchor="middle" font-family="Garamond, 'EB Garamond', Georgia, 'Times New Roman', serif" font-style="italic" font-size="19" letter-spacing="1" paint-order="stroke" stroke="#FFFFFF" stroke-width="8" stroke-linejoin="round" fill="#999999">everyone gets their own.</text>
  <text x="600" y="596" text-anchor="middle" font-family="Garamond, 'EB Garamond', Georgia, 'Times New Roman', serif" font-style="italic" font-size="26" letter-spacing="1.5" paint-order="stroke" stroke="#FFFFFF" stroke-width="8" stroke-linejoin="round" fill="#999999">coding, handed to everyone.</text>
</svg>
